<?xml version="1.0" encoding="utf-8"?>
<!-- Generator: Adobe Illustrator 25.2.1, SVG Export Plug-In . SVG Version: 6.00 Build 0)  -->
<svg version="1.1" xmlns="http://www.w3.org/2000/svg" xmlns:xlink="http://www.w3.org/1999/xlink" x="0px" y="0px"
	 viewBox="0 0 1366 768" style="enable-background:new 0 0 1366 768;" xml:space="preserve">
<style type="text/css">
	.st0{fill:#838384;}
</style>
<g id="Layer_2">
</g>
<g id="Layer_1">
	<path class="st0" d="M703.44,443.64c-33.5-0.01-67,0.02-100.5-0.02c-17.3-0.02-27.47-10.34-27.46-27.69
		c0.01-11.85-0.04-23.7,0.04-35.55c0.1-15.08,10.48-26.22,25.57-26.26c68.37-0.19,136.75-0.2,205.12,0.02
		c15.12,0.05,25.27,11.21,25.34,26.43c0.05,11.4-0.03,22.79,0.02,34.19c0.08,19.14-9.73,28.91-29,28.9
		C769.53,443.64,736.48,443.65,703.44,443.64z M626.33,379.91c-4.45,0-8.19,0-12.3,0c-0.25,4.34-0.47,8.31-0.7,12.35
		c-4.37,0.25-8.13,0.46-11.79,0.66c0,4.61,0,8.52,0,12.96c4.23,0,7.8,0,11.72,0c0.28,4.25,0.53,7.99,0.8,11.94c4.17,0,7.9,0,11.93,0
		c0.27-4.15,0.51-7.9,0.76-11.77c4.46-0.27,8.45-0.51,12.58-0.76c0-4.44,0-8.2,0-12.38c-4.51-0.25-8.67-0.49-13.01-0.73
		C626.33,387.82,626.33,384.2,626.33,379.91z M777.24,399.03c0,5.15,4.34,9.61,9.46,9.73c5.16,0.12,9.81-4.7,9.73-10.09
		c-0.08-5.43-4.04-9.13-9.71-9.07C781.35,389.65,777.24,393.74,777.24,399.03z"/>
	<path class="st0" d="M779.49,456.87c-35.06,31.5-70.36,59.43-113.95,75.77c-0.34-10.52,2.74-20.25,8.7-28.16
		c9.52-12.64,20.82-23.93,30.66-36.34c7.34-9.26,16-12.31,27.67-11.52C747.66,457.64,762.88,456.87,779.49,456.87z"/>
	<path class="st0" d="M792.79,459.4c-2.86,3.44-5.73,6.87-8.63,10.26c-6.54,7.63-16.26,12.02-22.23,20.06
		c-0.87,1.17-1.86,2.03-2.92,2.63c4.16,12.67,7.55,25.63,12.39,38.02c3.61,9.23,10.27,16.95,19.4,22.19
		C796.93,521.33,796.41,490.56,792.79,459.4z"/>
	<path class="st0" d="M818.84,277.63c0,4.35,0,7.91,0,12.2c-4.28,0-8.26,0-12.63,0c-0.23,4.48-0.42,8.28-0.65,12.62
		c-4.01,0.18-7.79,0.34-12.14,0.53c0,3.87,0,7.66,0,12.17c-4.27,0.22-8.02,0.41-12.49,0.63c-0.3,3.93-0.6,7.87-0.94,12.26
		c-4.05,0.19-7.84,0.37-12.34,0.58c-0.18,3.92-0.35,7.67-0.54,12c-20.33,0-40.47,0-61.61,0c1.78-1.55,3.06-2.89,4.55-3.93
		c23.85-16.7,47.81-33.25,71.56-50.09C792.8,278.69,805.11,276.55,818.84,277.63z"/>
	<path class="st0" d="M703.15,288.77c-8.06,1.19-15.6,1.59-22.68,3.6c-5.04,1.43-10.18,4.25-14.01,7.8
		c-6.18,5.73-4.25,12.48,3.75,15.11c3.19,1.05,6.66,1.39,10.04,1.69c3.14,0.27,6.32,0.06,9.92,0.06
		c-2.47,7.01-8.52,9.09-14.65,10.14c-5.53,0.94-11.65,1.92-16.86,0.5c-10.43-2.85-18.59,0.37-25.39,7.42
		c-5.13,5.31-10.79,6.72-17.68,6.15c-4.26-0.35-8.57-0.07-14.93-0.07c6.3-8.38,11.42-15.64,17.02-22.52
		c10.95-13.47,22.88-25.94,38.11-34.75c10.69-6.19,22.01-8.39,34.1-5.11C695.42,280.28,700.52,282.57,703.15,288.77z"/>
	<path class="st0" d="M626.33,379.91c0,4.29,0,7.91,0,12.27c4.34,0.24,8.5,0.48,13.01,0.73c0,4.17,0,7.93,0,12.38
		c-4.13,0.25-8.12,0.49-12.58,0.76c-0.25,3.87-0.5,7.62-0.76,11.77c-4.03,0-7.76,0-11.93,0c-0.26-3.95-0.51-7.69-0.8-11.94
		c-3.92,0-7.49,0-11.72,0c0-4.43,0-8.34,0-12.96c3.66-0.21,7.41-0.42,11.79-0.66c0.23-4.04,0.45-8.01,0.7-12.35
		C618.14,379.91,621.88,379.91,626.33,379.91z"/>
	<path class="st0" d="M777.24,399.03c0-5.29,4.11-9.38,9.48-9.44c5.66-0.06,9.62,3.64,9.71,9.07c0.08,5.39-4.56,10.21-9.73,10.09
		C781.58,408.64,777.24,404.18,777.24,399.03z"/>
</g>
</svg>
